<svg xmlns="http://www.w3.org/2000/svg" xmlns:xlink="http://www.w3.org/1999/xlink" width="248" height="245" viewBox="0 0 248 245" fill="none">
<g filter="url(#filter2_dddd_28_574)">
<rect x="4" y="205.5" width="116" height="32" rx="16" fill="#0A0A0A"/>
<rect x="4.5" y="206" width="115" height="31" rx="15.5" stroke="white"/>
<path d="M18.604 226V217.48H21.244C22.556 217.48 23.564 217.852 24.268 218.596C24.98 219.332 25.336 220.384 25.336 221.752C25.336 223.112 24.988 224.16 24.292 224.896C23.596 225.632 22.604 226 21.316 226H18.604ZM19.636 224.992H21.244C22.244 224.992 22.996 224.724 23.5 224.188C24.004 223.644 24.256 222.832 24.256 221.752C24.256 220.656 24.004 219.84 23.5 219.304C22.996 218.76 22.244 218.488 21.244 218.488H19.636V224.992ZM29.487 226.144C28.887 226.144 28.367 226.008 27.927 225.736C27.495 225.464 27.159 225.08 26.919 224.584C26.687 224.08 26.571 223.492 26.571 222.82C26.571 222.148 26.687 221.564 26.919 221.068C27.159 220.572 27.491 220.188 27.915 219.916C28.347 219.636 28.855 219.496 29.439 219.496C29.991 219.496 30.479 219.628 30.903 219.892C31.327 220.148 31.655 220.524 31.887 221.02C32.127 221.516 32.247 222.12 32.247 222.832V223.132H27.627C27.667 223.812 27.847 224.324 28.167 224.668C28.495 225.012 28.935 225.184 29.487 225.184C29.903 225.184 30.243 225.088 30.507 224.896C30.779 224.696 30.967 224.436 31.071 224.116L32.151 224.2C31.983 224.768 31.663 225.236 31.191 225.604C30.727 225.964 30.159 226.144 29.487 226.144ZM27.627 222.244H31.143C31.095 221.628 30.915 221.176 30.603 220.888C30.299 220.6 29.911 220.456 29.439 220.456C28.951 220.456 28.547 220.608 28.227 220.912C27.915 221.208 27.715 221.652 27.627 222.244ZM33.6123 227.8V219.64H34.5483L34.5723 221.008L34.4283 220.936C34.5883 220.464 34.8523 220.108 35.2203 219.868C35.5963 219.62 36.0283 219.496 36.5163 219.496C37.1483 219.496 37.6643 219.652 38.0643 219.964C38.4723 220.276 38.7723 220.684 38.9643 221.188C39.1643 221.692 39.2643 222.236 39.2643 222.82C39.2643 223.404 39.1643 223.948 38.9643 224.452C38.7723 224.956 38.4723 225.364 38.0643 225.676C37.6643 225.988 37.1483 226.144 36.5163 226.144C36.1883 226.144 35.8803 226.088 35.5923 225.976C35.3123 225.864 35.0723 225.708 34.8723 225.508C34.6803 225.308 34.5483 225.072 34.4763 224.8L34.6203 224.632V227.8H33.6123ZM36.4203 225.184C36.9723 225.184 37.4083 224.976 37.7283 224.56C38.0483 224.144 38.2083 223.564 38.2083 222.82C38.2083 222.076 38.0483 221.496 37.7283 221.08C37.4083 220.664 36.9723 220.456 36.4203 220.456C36.0523 220.456 35.7323 220.544 35.4603 220.72C35.1963 220.896 34.9883 221.16 34.8363 221.512C34.6923 221.864 34.6203 222.3 34.6203 222.82C34.6203 223.34 34.6923 223.776 34.8363 224.128C34.9803 224.48 35.1883 224.744 35.4603 224.92C35.7323 225.096 36.0523 225.184 36.4203 225.184ZM41.9385 226C41.5705 226 41.2705 225.904 41.0385 225.712C40.8065 225.52 40.6905 225.216 40.6905 224.8V217.48H41.6985V224.716C41.6985 224.844 41.7305 224.944 41.7945 225.016C41.8665 225.08 41.9665 225.112 42.0945 225.112H42.6465V226H41.9385ZM46.3034 226.144C45.7194 226.144 45.2074 226.008 44.7674 225.736C44.3274 225.464 43.9874 225.08 43.7474 224.584C43.5074 224.08 43.3874 223.492 43.3874 222.82C43.3874 222.14 43.5074 221.552 43.7474 221.056C43.9874 220.56 44.3274 220.176 44.7674 219.904C45.2074 219.632 45.7194 219.496 46.3034 219.496C46.8874 219.496 47.3954 219.632 47.8274 219.904C48.2674 220.176 48.6074 220.56 48.8474 221.056C49.0874 221.552 49.2074 222.14 49.2074 222.82C49.2074 223.492 49.0874 224.08 48.8474 224.584C48.6074 225.08 48.2674 225.464 47.8274 225.736C47.3954 226.008 46.8874 226.144 46.3034 226.144ZM46.3034 225.184C46.8874 225.184 47.3394 224.976 47.6594 224.56C47.9874 224.136 48.1514 223.556 48.1514 222.82C48.1514 222.084 47.9874 221.508 47.6594 221.092C47.3394 220.668 46.8874 220.456 46.3034 220.456C45.7194 220.456 45.2634 220.668 44.9354 221.092C44.6074 221.508 44.4434 222.084 44.4434 222.82C44.4434 223.556 44.6074 224.136 44.9354 224.56C45.2634 224.976 45.7194 225.184 46.3034 225.184ZM50.6696 227.8V226.912H51.4016C51.6256 226.912 51.7896 226.876 51.8936 226.804C52.0056 226.74 52.0896 226.632 52.1456 226.48L52.3736 225.88H52.0256L49.6976 219.64H50.8016L52.6976 224.944L54.5096 219.64H55.6136L53.0336 226.804C52.9136 227.148 52.7336 227.4 52.4936 227.56C52.2536 227.72 51.9216 227.8 51.4976 227.8H50.6696ZM59.8389 226V219.64H60.8469V226H59.8389ZM59.8149 218.644V217.468H60.8709V218.644H59.8149ZM62.8858 226V219.64H63.8098L63.8458 221.26L63.7258 221.152C63.8058 220.776 63.9458 220.468 64.1458 220.228C64.3458 219.98 64.5858 219.796 64.8658 219.676C65.1538 219.556 65.4618 219.496 65.7898 219.496C66.2778 219.496 66.6778 219.604 66.9898 219.82C67.3098 220.036 67.5458 220.328 67.6978 220.696C67.8578 221.056 67.9378 221.46 67.9378 221.908V226H66.9298V222.196C66.9298 221.804 66.8818 221.476 66.7858 221.212C66.6978 220.94 66.5538 220.736 66.3538 220.6C66.1538 220.456 65.8938 220.384 65.5738 220.384C65.0858 220.384 64.6818 220.54 64.3618 220.852C64.0498 221.156 63.8938 221.604 63.8938 222.196V226H62.8858ZM72.0338 226.144C71.4658 226.144 70.9818 226.052 70.5818 225.868C70.1898 225.684 69.8818 225.432 69.6578 225.112C69.4418 224.784 69.3178 224.412 69.2858 223.996L70.3418 223.924C70.4058 224.308 70.5698 224.616 70.8338 224.848C71.0978 225.072 71.4978 225.184 72.0338 225.184C72.4658 225.184 72.8098 225.116 73.0658 224.98C73.3298 224.836 73.4618 224.608 73.4618 224.296C73.4618 224.128 73.4218 223.988 73.3418 223.876C73.2618 223.764 73.1058 223.668 72.8738 223.588C72.6418 223.5 72.2978 223.416 71.8418 223.336C71.2338 223.224 70.7538 223.088 70.4018 222.928C70.0578 222.76 69.8098 222.556 69.6578 222.316C69.5138 222.068 69.4418 221.776 69.4418 221.44C69.4418 220.872 69.6498 220.408 70.0658 220.048C70.4818 219.68 71.0738 219.496 71.8418 219.496C72.3618 219.496 72.7978 219.592 73.1498 219.784C73.5098 219.968 73.7898 220.216 73.9898 220.528C74.1978 220.832 74.3338 221.168 74.3978 221.536L73.3418 221.608C73.2938 221.384 73.2058 221.188 73.0778 221.02C72.9498 220.844 72.7818 220.708 72.5738 220.612C72.3658 220.508 72.1178 220.456 71.8298 220.456C71.3738 220.456 71.0378 220.544 70.8218 220.72C70.6058 220.896 70.4978 221.12 70.4978 221.392C70.4978 221.6 70.5458 221.772 70.6418 221.908C70.7458 222.036 70.9098 222.144 71.1338 222.232C71.3578 222.312 71.6578 222.384 72.0338 222.448C72.6818 222.56 73.1858 222.696 73.5458 222.856C73.9058 223.016 74.1578 223.212 74.3018 223.444C74.4458 223.676 74.5178 223.96 74.5178 224.296C74.5178 224.688 74.4058 225.024 74.1818 225.304C73.9658 225.576 73.6698 225.784 73.2938 225.928C72.9258 226.072 72.5058 226.144 72.0338 226.144ZM77.9755 226C77.3995 226 76.9715 225.868 76.6915 225.604C76.4195 225.34 76.2835 224.928 76.2835 224.368V218.152H77.2915V224.344C77.2915 224.632 77.3555 224.832 77.4835 224.944C77.6115 225.056 77.8075 225.112 78.0715 225.112H78.9835V226H77.9755ZM75.3475 220.528V219.64H78.9835V220.528H75.3475ZM81.9455 226.144C81.2895 226.144 80.7655 225.992 80.3735 225.688C79.9895 225.384 79.7975 224.96 79.7975 224.416C79.7975 223.872 79.9575 223.444 80.2775 223.132C80.5975 222.82 81.1055 222.6 81.8015 222.472L84.0575 222.052C84.0575 221.516 83.9295 221.116 83.6735 220.852C83.4255 220.588 83.0495 220.456 82.5455 220.456C82.1055 220.456 81.7575 220.556 81.5015 220.756C81.2455 220.948 81.0695 221.228 80.9735 221.596L79.9055 221.512C80.0255 220.912 80.3135 220.428 80.7695 220.06C81.2335 219.684 81.8255 219.496 82.5455 219.496C83.3615 219.496 83.9855 219.728 84.4175 220.192C84.8495 220.648 85.0655 221.28 85.0655 222.088V224.716C85.0655 224.86 85.0895 224.964 85.1375 225.028C85.1935 225.084 85.2815 225.112 85.4015 225.112H85.6535V226C85.6215 226.008 85.5695 226.012 85.4975 226.012C85.4255 226.02 85.3495 226.024 85.2695 226.024C84.9815 226.024 84.7455 225.98 84.5615 225.892C84.3855 225.796 84.2575 225.652 84.1775 225.46C84.0975 225.26 84.0575 225 84.0575 224.68L84.1775 224.704C84.1215 224.976 83.9855 225.224 83.7695 225.448C83.5535 225.664 83.2855 225.836 82.9655 225.964C82.6455 226.084 82.3055 226.144 81.9455 226.144ZM82.0415 225.256C82.4655 225.256 82.8255 225.176 83.1215 225.016C83.4255 224.848 83.6575 224.624 83.8175 224.344C83.9775 224.056 84.0575 223.736 84.0575 223.384V222.928L81.9935 223.312C81.5615 223.392 81.2615 223.516 81.0935 223.684C80.9335 223.844 80.8535 224.056 80.8535 224.32C80.8535 224.616 80.9575 224.848 81.1655 225.016C81.3815 225.176 81.6735 225.256 82.0415 225.256ZM86.792 226V219.64H87.716L87.752 221.26L87.632 221.152C87.712 220.776 87.852 220.468 88.052 220.228C88.252 219.98 88.492 219.796 88.772 219.676C89.06 219.556 89.368 219.496 89.696 219.496C90.184 219.496 90.584 219.604 90.896 219.82C91.216 220.036 91.452 220.328 91.604 220.696C91.764 221.056 91.844 221.46 91.844 221.908V226H90.836V222.196C90.836 221.804 90.788 221.476 90.692 221.212C90.604 220.94 90.46 220.736 90.26 220.6C90.06 220.456 89.8 220.384 89.48 220.384C88.992 220.384 88.588 220.54 88.268 220.852C87.956 221.156 87.8 221.604 87.8 222.196V226H86.792ZM95.6122 226C95.0362 226 94.6082 225.868 94.3282 225.604C94.0562 225.34 93.9202 224.928 93.9202 224.368V218.152H94.9282V224.344C94.9282 224.632 94.9922 224.832 95.1202 224.944C95.2482 225.056 95.4442 225.112 95.7082 225.112H96.6202V226H95.6122ZM92.9842 220.528V219.64H96.6202V220.528H92.9842ZM99.2314 226C98.8634 226 98.5634 225.904 98.3314 225.712C98.0994 225.52 97.9834 225.216 97.9834 224.8V217.48H98.9914V224.716C98.9914 224.844 99.0234 224.944 99.0874 225.016C99.1594 225.08 99.2594 225.112 99.3874 225.112H99.9394V226H99.2314ZM101.166 227.8V226.912H101.898C102.122 226.912 102.286 226.876 102.39 226.804C102.502 226.74 102.586 226.632 102.642 226.48L102.87 225.88H102.522L100.194 219.64H101.298L103.194 224.944L105.006 219.64H106.11L103.53 226.804C103.41 227.148 103.23 227.4 102.99 227.56C102.75 227.72 102.418 227.8 101.994 227.8H101.166Z" fill="white"/>
</g>
<rect x="128.5" y="206" width="115" height="31" rx="15.5" stroke="#AEAEB2" stroke-opacity="0.2"/>
<path d="M148.104 225.5V216.98H150.744C152.056 216.98 153.064 217.352 153.768 218.096C154.48 218.832 154.836 219.884 154.836 221.252C154.836 222.612 154.488 223.66 153.792 224.396C153.096 225.132 152.104 225.5 150.816 225.5H148.104ZM149.136 224.492H150.744C151.744 224.492 152.496 224.224 153 223.688C153.504 223.144 153.756 222.332 153.756 221.252C153.756 220.156 153.504 219.34 153 218.804C152.496 218.26 151.744 217.988 150.744 217.988H149.136V224.492ZM158.987 225.644C158.403 225.644 157.891 225.508 157.451 225.236C157.011 224.964 156.671 224.58 156.431 224.084C156.191 223.58 156.071 222.992 156.071 222.32C156.071 221.64 156.191 221.052 156.431 220.556C156.671 220.06 157.011 219.676 157.451 219.404C157.891 219.132 158.403 218.996 158.987 218.996C159.571 218.996 160.079 219.132 160.511 219.404C160.951 219.676 161.291 220.06 161.531 220.556C161.771 221.052 161.891 221.64 161.891 222.32C161.891 222.992 161.771 223.58 161.531 224.084C161.291 224.58 160.951 224.964 160.511 225.236C160.079 225.508 159.571 225.644 158.987 225.644ZM158.987 224.684C159.571 224.684 160.023 224.476 160.343 224.06C160.671 223.636 160.835 223.056 160.835 222.32C160.835 221.584 160.671 221.008 160.343 220.592C160.023 220.168 159.571 219.956 158.987 219.956C158.403 219.956 157.947 220.168 157.619 220.592C157.291 221.008 157.127 221.584 157.127 222.32C157.127 223.056 157.291 223.636 157.619 224.06C157.947 224.476 158.403 224.684 158.987 224.684ZM164.349 225.5L162.381 219.14H163.485L164.973 224.444L166.485 219.14H167.565L169.077 224.444L170.577 219.14H171.681L169.713 225.5H168.441L167.025 220.664L165.609 225.5H164.349ZM172.616 225.5V219.14H173.54L173.576 220.76L173.456 220.652C173.536 220.276 173.676 219.968 173.876 219.728C174.076 219.48 174.316 219.296 174.596 219.176C174.884 219.056 175.192 218.996 175.52 218.996C176.008 218.996 176.408 219.104 176.72 219.32C177.04 219.536 177.276 219.828 177.428 220.196C177.588 220.556 177.668 220.96 177.668 221.408V225.5H176.66V221.696C176.66 221.304 176.612 220.976 176.516 220.712C176.428 220.44 176.284 220.236 176.084 220.1C175.884 219.956 175.624 219.884 175.304 219.884C174.816 219.884 174.412 220.04 174.092 220.352C173.78 220.656 173.624 221.104 173.624 221.696V225.5H172.616ZM180.661 225.5C180.293 225.5 179.993 225.404 179.761 225.212C179.529 225.02 179.413 224.716 179.413 224.3V216.98H180.421V224.216C180.421 224.344 180.453 224.444 180.517 224.516C180.589 224.58 180.689 224.612 180.817 224.612H181.369V225.5H180.661ZM185.026 225.644C184.442 225.644 183.93 225.508 183.49 225.236C183.05 224.964 182.71 224.58 182.47 224.084C182.23 223.58 182.11 222.992 182.11 222.32C182.11 221.64 182.23 221.052 182.47 220.556C182.71 220.06 183.05 219.676 183.49 219.404C183.93 219.132 184.442 218.996 185.026 218.996C185.61 218.996 186.118 219.132 186.55 219.404C186.99 219.676 187.33 220.06 187.57 220.556C187.81 221.052 187.93 221.64 187.93 222.32C187.93 222.992 187.81 223.58 187.57 224.084C187.33 224.58 186.99 224.964 186.55 225.236C186.118 225.508 185.61 225.644 185.026 225.644ZM185.026 224.684C185.61 224.684 186.062 224.476 186.382 224.06C186.71 223.636 186.874 223.056 186.874 222.32C186.874 221.584 186.71 221.008 186.382 220.592C186.062 220.168 185.61 219.956 185.026 219.956C184.442 219.956 183.986 220.168 183.658 220.592C183.33 221.008 183.166 221.584 183.166 222.32C183.166 223.056 183.33 223.636 183.658 224.06C183.986 224.476 184.442 224.684 185.026 224.684ZM191.184 225.644C190.528 225.644 190.004 225.492 189.612 225.188C189.228 224.884 189.036 224.46 189.036 223.916C189.036 223.372 189.196 222.944 189.516 222.632C189.836 222.32 190.344 222.1 191.04 221.972L193.296 221.552C193.296 221.016 193.168 220.616 192.912 220.352C192.664 220.088 192.288 219.956 191.784 219.956C191.344 219.956 190.996 220.056 190.74 220.256C190.484 220.448 190.308 220.728 190.212 221.096L189.144 221.012C189.264 220.412 189.552 219.928 190.008 219.56C190.472 219.184 191.064 218.996 191.784 218.996C192.6 218.996 193.224 219.228 193.656 219.692C194.088 220.148 194.304 220.78 194.304 221.588V224.216C194.304 224.36 194.328 224.464 194.376 224.528C194.432 224.584 194.52 224.612 194.64 224.612H194.892V225.5C194.86 225.508 194.808 225.512 194.736 225.512C194.664 225.52 194.588 225.524 194.508 225.524C194.22 225.524 193.984 225.48 193.8 225.392C193.624 225.296 193.496 225.152 193.416 224.96C193.336 224.76 193.296 224.5 193.296 224.18L193.416 224.204C193.36 224.476 193.224 224.724 193.008 224.948C192.792 225.164 192.524 225.336 192.204 225.464C191.884 225.584 191.544 225.644 191.184 225.644ZM191.28 224.756C191.704 224.756 192.064 224.676 192.36 224.516C192.664 224.348 192.896 224.124 193.056 223.844C193.216 223.556 193.296 223.236 193.296 222.884V222.428L191.232 222.812C190.8 222.892 190.5 223.016 190.332 223.184C190.172 223.344 190.092 223.556 190.092 223.82C190.092 224.116 190.196 224.348 190.404 224.516C190.62 224.676 190.912 224.756 191.28 224.756ZM198.263 225.644C197.711 225.644 197.231 225.508 196.823 225.236C196.423 224.964 196.115 224.58 195.899 224.084C195.683 223.588 195.575 223 195.575 222.32C195.575 221.64 195.683 221.052 195.899 220.556C196.115 220.06 196.423 219.676 196.823 219.404C197.231 219.132 197.711 218.996 198.263 218.996C198.687 218.996 199.075 219.088 199.427 219.272C199.779 219.448 200.043 219.7 200.219 220.028V216.98H201.227V225.5H200.315L200.279 224.54C200.103 224.884 199.835 225.156 199.475 225.356C199.115 225.548 198.711 225.644 198.263 225.644ZM198.467 224.684C198.843 224.684 199.159 224.588 199.415 224.396C199.679 224.204 199.879 223.932 200.015 223.58C200.151 223.22 200.219 222.8 200.219 222.32C200.219 221.824 200.151 221.4 200.015 221.048C199.879 220.696 199.679 220.428 199.415 220.244C199.159 220.052 198.843 219.956 198.467 219.956C197.907 219.956 197.459 220.168 197.123 220.592C196.795 221.008 196.631 221.584 196.631 222.32C196.631 223.048 196.795 223.624 197.123 224.048C197.459 224.472 197.907 224.684 198.467 224.684ZM206.288 225.5V216.98H211.64V217.988H206.804L207.32 217.46V221.372L206.804 220.844H211.424V221.828H206.804L207.32 221.3V225.5H206.288ZM212.987 225.5V219.14H213.995V225.5H212.987ZM212.963 218.144V216.968H214.019V218.144H212.963ZM217.048 225.5C216.68 225.5 216.38 225.404 216.148 225.212C215.916 225.02 215.8 224.716 215.8 224.3V216.98H216.808V224.216C216.808 224.344 216.84 224.444 216.904 224.516C216.976 224.58 217.076 224.612 217.204 224.612H217.756V225.5H217.048ZM221.413 225.644C220.813 225.644 220.293 225.508 219.853 225.236C219.421 224.964 219.085 224.58 218.845 224.084C218.613 223.58 218.497 222.992 218.497 222.32C218.497 221.648 218.613 221.064 218.845 220.568C219.085 220.072 219.417 219.688 219.841 219.416C220.273 219.136 220.781 218.996 221.365 218.996C221.917 218.996 222.405 219.128 222.829 219.392C223.253 219.648 223.581 220.024 223.813 220.52C224.053 221.016 224.173 221.62 224.173 222.332V222.632H219.553C219.593 223.312 219.773 223.824 220.093 224.168C220.421 224.512 220.861 224.684 221.413 224.684C221.829 224.684 222.169 224.588 222.433 224.396C222.705 224.196 222.893 223.936 222.997 223.616L224.077 223.7C223.909 224.268 223.589 224.736 223.117 225.104C222.653 225.464 222.085 225.644 221.413 225.644ZM219.553 221.744H223.069C223.021 221.128 222.841 220.676 222.529 220.388C222.225 220.1 221.837 219.956 221.365 219.956C220.877 219.956 220.473 220.108 220.153 220.412C219.841 220.708 219.641 221.152 219.553 221.744Z" fill="#292929"/>
<defs>
<filter id="filter2_dddd_28_574" x="2" y="204.5" width="120" height="40" filterUnits="userSpaceOnUse" color-interpolation-filters="sRGB">
<feFlood flood-opacity="0" result="BackgroundImageFix"/>
<feColorMatrix in="SourceAlpha" type="matrix" values="0 0 0 0 0 0 0 0 0 0 0 0 0 0 0 0 0 0 127 0" result="hardAlpha"/>
<feOffset/>
<feGaussianBlur stdDeviation="0.5"/>
<feColorMatrix type="matrix" values="0 0 0 0 0 0 0 0 0 0 0 0 0 0 0 0 0 0 0.1 0"/>
<feBlend mode="normal" in2="BackgroundImageFix" result="effect1_dropShadow_28_574"/>
<feColorMatrix in="SourceAlpha" type="matrix" values="0 0 0 0 0 0 0 0 0 0 0 0 0 0 0 0 0 0 127 0" result="hardAlpha"/>
<feOffset dy="1"/>
<feGaussianBlur stdDeviation="0.5"/>
<feColorMatrix type="matrix" values="0 0 0 0 0 0 0 0 0 0 0 0 0 0 0 0 0 0 0.09 0"/>
<feBlend mode="normal" in2="effect1_dropShadow_28_574" result="effect2_dropShadow_28_574"/>
<feColorMatrix in="SourceAlpha" type="matrix" values="0 0 0 0 0 0 0 0 0 0 0 0 0 0 0 0 0 0 127 0" result="hardAlpha"/>
<feOffset dy="3"/>
<feGaussianBlur stdDeviation="1"/>
<feColorMatrix type="matrix" values="0 0 0 0 0 0 0 0 0 0 0 0 0 0 0 0 0 0 0.05 0"/>
<feBlend mode="normal" in2="effect2_dropShadow_28_574" result="effect3_dropShadow_28_574"/>
<feColorMatrix in="SourceAlpha" type="matrix" values="0 0 0 0 0 0 0 0 0 0 0 0 0 0 0 0 0 0 127 0" result="hardAlpha"/>
<feOffset dy="5"/>
<feGaussianBlur stdDeviation="1"/>
<feColorMatrix type="matrix" values="0 0 0 0 0 0 0 0 0 0 0 0 0 0 0 0 0 0 0.01 0"/>
<feBlend mode="normal" in2="effect3_dropShadow_28_574" result="effect4_dropShadow_28_574"/>
<feBlend mode="normal" in="SourceGraphic" in2="effect4_dropShadow_28_574" result="shape"/>
</filter>
</defs>
</svg>
